<svg xmlns="http://www.w3.org/2000/svg" xmlns:xlink="http://www.w3.org/1999/xlink" viewBox="0 0 519.29 73.13"><defs><style>.cls-1{isolation:isolate;}.cls-2{fill:url(#linear-gradient);}.cls-3{opacity:0.82;mix-blend-mode:multiply;}.cls-4{fill:#fff;}.cls-5{fill:#fafafa;}.cls-6{fill:#f5f5f5;}.cls-7{fill:#f0f0f1;}.cls-8{fill:#ebebec;}.cls-9{fill:#e5e7e7;}.cls-10{fill:#e0e2e2;}.cls-11{fill:#dbddde;}.cls-12{fill:#d6d8d9;}.cls-13{fill:#d1d3d4;}</style><linearGradient id="linear-gradient" x1="259.64" x2="259.64" y2="73.13" gradientUnits="userSpaceOnUse"><stop offset="0" stop-color="#f6f6f6"/><stop offset="0.27" stop-color="#f1f1f1"/><stop offset="0.6" stop-color="#e2e2e2"/><stop offset="0.95" stop-color="#cacaca"/><stop offset="1" stop-color="#c6c6c6"/></linearGradient></defs><title>1</title><g class="cls-1"><g id="Layer_1" data-name="Layer 1"><rect class="cls-2" width="519.29" height="73.13" rx="18.09"/><g class="cls-3"><path class="cls-4" d="M499.54,72.55l-483-.19s51.17-5,241.56-4.88C412.42,67.54,499.54,72.55,499.54,72.55Z"/><path class="cls-5" d="M499.54,72.56l-483-.19s51.17-4.56,241.56-4.48C412.41,68,499.54,72.56,499.54,72.56Z"/><path class="cls-6" d="M499.54,72.57l-483-.2s51.17-4.15,241.56-4.08C412.41,68.35,499.54,72.57,499.54,72.57Z"/><path class="cls-7" d="M499.54,72.58l-483-.2s51.17-3.76,241.55-3.68C412.41,68.76,499.54,72.58,499.54,72.58Z"/><path class="cls-8" d="M499.54,72.59l-483-.2S67.67,69,258.06,69.1C412.41,69.17,499.54,72.59,499.54,72.59Z"/><path class="cls-9" d="M499.54,72.6l-483-.2s51.16-3,241.55-2.89C412.4,69.57,499.54,72.6,499.54,72.6Z"/><path class="cls-10" d="M499.54,72.6l-483-.19s51.16-2.57,241.54-2.49C412.4,70,499.54,72.6,499.54,72.6Z"/><path class="cls-11" d="M499.54,72.61l-483-.19s51.15-2.18,241.54-2.1C412.4,70.38,499.54,72.61,499.54,72.61Z"/><path class="cls-12" d="M499.54,72.62l-483-.19s51.15-1.78,241.54-1.7C412.39,70.79,499.54,72.62,499.54,72.62Z"/><path class="cls-13" d="M499.54,72.63l-483-.2s51.15-1.37,241.54-1.3C412.39,71.2,499.54,72.63,499.54,72.63Z"/></g></g></g></svg>