<svg xmlns="http://www.w3.org/2000/svg" xmlns:xlink="http://www.w3.org/1999/xlink" viewBox="0 0 519.29 137.82"><defs><style>.cls-1{isolation:isolate;}.cls-2{fill:url(#linear-gradient);}.cls-3{mix-blend-mode:multiply;}.cls-4{fill:#fff;}.cls-5{fill:#fafafa;}.cls-6{fill:#f5f5f5;}.cls-7{fill:#f0f0f1;}.cls-8{fill:#ebebec;}.cls-9{fill:#e5e7e7;}.cls-10{fill:#e0e2e2;}.cls-11{fill:#dbddde;}.cls-12{fill:#d6d8d9;}.cls-13{fill:#d1d3d4;}</style><linearGradient id="linear-gradient" x1="259.64" x2="259.64" y2="137.76" gradientUnits="userSpaceOnUse"><stop offset="0" stop-color="#f6f6f6"/><stop offset="0.27" stop-color="#f1f1f1"/><stop offset="0.6" stop-color="#e2e2e2"/><stop offset="0.95" stop-color="#cacaca"/><stop offset="1" stop-color="#c6c6c6"/></linearGradient></defs><title>2</title><g class="cls-1"><g id="Layer_1" data-name="Layer 1"><rect class="cls-2" width="519.29" height="137.76" rx="18.09"/><g class="cls-3"><path class="cls-4" d="M502.3,137.75l-483-.2s51.17-5,241.55-4.88C415.17,132.74,502.3,137.75,502.3,137.75Z"/><path class="cls-5" d="M502.3,137.76l-483-.2s51.17-4.56,241.56-4.48C415.17,133.14,502.3,137.76,502.3,137.76Z"/><path class="cls-6" d="M502.3,137.76l-483-.19s51.17-4.16,241.56-4.08C415.16,133.55,502.3,137.76,502.3,137.76Z"/><path class="cls-7" d="M502.3,137.77l-483-.19s51.17-3.77,241.55-3.69C415.16,134,502.3,137.77,502.3,137.77Z"/><path class="cls-8" d="M502.3,137.78l-483-.2s51.17-3.36,241.55-3.28C415.16,134.36,502.3,137.78,502.3,137.78Z"/><path class="cls-9" d="M502.3,137.79l-483-.2s51.16-3,241.55-2.89C415.16,134.76,502.3,137.79,502.3,137.79Z"/><path class="cls-10" d="M502.3,137.8l-483-.2s51.16-2.57,241.55-2.49C415.15,135.17,502.3,137.8,502.3,137.8Z"/><path class="cls-11" d="M502.3,137.81l-483-.2s51.16-2.17,241.54-2.1C415.15,135.58,502.3,137.81,502.3,137.81Z"/><path class="cls-12" d="M502.3,137.81l-483-.19s51.15-1.78,241.54-1.7C415.15,136,502.3,137.81,502.3,137.81Z"/><path class="cls-13" d="M502.3,137.82l-483-.19s51.15-1.38,241.54-1.3C415.14,136.39,502.3,137.82,502.3,137.82Z"/></g></g></g></svg>