<svg xmlns="http://www.w3.org/2000/svg" xmlns:xlink="http://www.w3.org/1999/xlink" viewBox="0 0 519.29 122.8"><defs><style>.cls-1{isolation:isolate;}.cls-2{fill:url(#linear-gradient);}.cls-3{mix-blend-mode:multiply;}.cls-4{fill:#fff;}.cls-5{fill:#fafafa;}.cls-6{fill:#f5f5f5;}.cls-7{fill:#f0f0f1;}.cls-8{fill:#ebebec;}.cls-9{fill:#e5e7e7;}.cls-10{fill:#e0e2e2;}.cls-11{fill:#dbddde;}.cls-12{fill:#d6d8d9;}.cls-13{fill:#d1d3d4;}</style><linearGradient id="linear-gradient" x1="259.64" x2="259.64" y2="122.8" gradientUnits="userSpaceOnUse"><stop offset="0" stop-color="#f6f6f6"/><stop offset="0.27" stop-color="#f1f1f1"/><stop offset="0.6" stop-color="#e2e2e2"/><stop offset="0.95" stop-color="#cacaca"/><stop offset="1" stop-color="#c6c6c6"/></linearGradient></defs><title>3</title><g class="cls-1"><g id="Layer_1" data-name="Layer 1"><rect class="cls-2" width="519.29" height="122.8" rx="18.09"/><g class="cls-3"><path class="cls-4" d="M501.16,122.72l-483-.19s51.17-5,241.56-4.88C414,117.71,501.16,122.72,501.16,122.72Z"/><path class="cls-5" d="M501.16,122.73l-483-.19S69.3,118,259.69,118.06C414,118.12,501.16,122.73,501.16,122.73Z"/><path class="cls-6" d="M501.16,122.74l-483-.19s51.17-4.16,241.56-4.09C414,118.53,501.16,122.74,501.16,122.74Z"/><path class="cls-7" d="M501.16,122.75l-483-.2s51.17-3.76,241.55-3.68C414,118.93,501.16,122.75,501.16,122.75Z"/><path class="cls-8" d="M501.16,122.76l-483-.2s51.16-3.36,241.55-3.29C414,119.34,501.16,122.76,501.16,122.76Z"/><path class="cls-9" d="M501.16,122.77l-483-.2s51.16-3,241.55-2.89C414,119.74,501.16,122.77,501.16,122.77Z"/><path class="cls-10" d="M501.16,122.77l-483-.19s51.16-2.57,241.54-2.49C414,120.15,501.16,122.77,501.16,122.77Z"/><path class="cls-11" d="M501.16,122.78l-483-.19s51.15-2.18,241.54-2.1C414,120.55,501.16,122.78,501.16,122.78Z"/><path class="cls-12" d="M501.16,122.79l-483-.19s51.15-1.78,241.54-1.7C414,121,501.16,122.79,501.16,122.79Z"/><path class="cls-13" d="M501.16,122.8l-483-.2s51.15-1.37,241.53-1.3C414,121.37,501.16,122.8,501.16,122.8Z"/></g></g></g></svg>