<svg xmlns="http://www.w3.org/2000/svg" xmlns:xlink="http://www.w3.org/1999/xlink" viewBox="0 0 519.29 135.8"><defs><style>.cls-1{isolation:isolate;}.cls-2{fill:url(#linear-gradient);}.cls-3{mix-blend-mode:multiply;}.cls-4{fill:#fff;}.cls-5{fill:#fafafa;}.cls-6{fill:#f5f5f5;}.cls-7{fill:#f0f0f1;}.cls-8{fill:#ebebec;}.cls-9{fill:#e5e7e7;}.cls-10{fill:#e0e2e2;}.cls-11{fill:#dbddde;}.cls-12{fill:#d6d8d9;}.cls-13{fill:#d1d3d4;}</style><linearGradient id="linear-gradient" x1="259.64" x2="259.64" y2="135.8" gradientUnits="userSpaceOnUse"><stop offset="0" stop-color="#f6f6f6"/><stop offset="0.27" stop-color="#f1f1f1"/><stop offset="0.6" stop-color="#e2e2e2"/><stop offset="0.95" stop-color="#cacaca"/><stop offset="1" stop-color="#c6c6c6"/></linearGradient></defs><title>4</title><g class="cls-1"><g id="Layer_1" data-name="Layer 1"><rect class="cls-2" width="519.29" height="135.8" rx="18.09"/><g class="cls-3"><path class="cls-4" d="M501.16,135.64l-483-.19s51.17-5,241.56-4.88C414,130.63,501.16,135.64,501.16,135.64Z"/><path class="cls-5" d="M501.16,135.65l-483-.2S69.3,130.9,259.69,131C414,131,501.16,135.65,501.16,135.65Z"/><path class="cls-6" d="M501.16,135.66l-483-.2s51.17-4.16,241.56-4.08C414,131.44,501.16,135.66,501.16,135.66Z"/><path class="cls-7" d="M501.16,135.67l-483-.2s51.17-3.76,241.55-3.68C414,131.85,501.16,135.67,501.16,135.67Z"/><path class="cls-8" d="M501.16,135.68l-483-.2s51.16-3.36,241.55-3.29C414,132.26,501.16,135.68,501.16,135.68Z"/><path class="cls-9" d="M501.16,135.69l-483-.2s51.16-3,241.55-2.89C414,132.66,501.16,135.69,501.16,135.69Z"/><path class="cls-10" d="M501.16,135.69l-483-.19s51.16-2.57,241.54-2.5C414,133.07,501.16,135.69,501.16,135.69Z"/><path class="cls-11" d="M501.16,135.7l-483-.19s51.15-2.18,241.54-2.1C414,133.47,501.16,135.7,501.16,135.7Z"/><path class="cls-12" d="M501.16,135.71l-483-.2s51.15-1.77,241.54-1.69C414,133.88,501.16,135.71,501.16,135.71Z"/><path class="cls-13" d="M501.16,135.72l-483-.2s51.15-1.38,241.53-1.3C414,134.28,501.16,135.72,501.16,135.72Z"/></g></g></g></svg>