<svg xmlns="http://www.w3.org/2000/svg" xmlns:xlink="http://www.w3.org/1999/xlink" viewBox="0 0 79.5 58.54"><defs><style>.cls-1{isolation:isolate;}.cls-2{fill:url(#linear-gradient);}.cls-3{mix-blend-mode:multiply;}.cls-4{fill:#fff;}.cls-5{fill:#fafafa;}.cls-6{fill:#f5f5f5;}.cls-7{fill:#f0f0f1;}.cls-8{fill:#ebebec;}.cls-9{fill:#e5e7e7;}.cls-10{fill:#e0e2e2;}.cls-11{fill:#dbddde;}.cls-12{fill:#d6d8d9;}.cls-13{fill:#d1d3d4;}.cls-14{fill:url(#linear-gradient-2);}.cls-15{fill:url(#linear-gradient-3);}.cls-16{fill:url(#linear-gradient-4);}.cls-17{fill:url(#linear-gradient-5);}</style><linearGradient id="linear-gradient" y1="29.27" x2="79.5" y2="29.27" gradientUnits="userSpaceOnUse"><stop offset="0" stop-color="#f7da92"/><stop offset="0.18" stop-color="#f6d37d"/><stop offset="0.56" stop-color="#f3c246"/><stop offset="1" stop-color="#efab00"/></linearGradient><linearGradient id="linear-gradient-2" x1="10.6" y1="29.27" x2="54.06" y2="29.27" gradientUnits="userSpaceOnUse"><stop offset="0" stop-color="#fff"/><stop offset="0.32" stop-color="#fbfbfb"/><stop offset="0.64" stop-color="#efefef"/><stop offset="0.96" stop-color="#dbdbdb"/><stop offset="0.99" stop-color="#d8d8d8"/></linearGradient><linearGradient id="linear-gradient-3" x1="15.66" y1="29.27" x2="49.01" y2="29.27" gradientUnits="userSpaceOnUse"><stop offset="0.01" stop-color="#d8d8d8"/><stop offset="0.04" stop-color="#dbdbdb"/><stop offset="0.36" stop-color="#efefef"/><stop offset="0.68" stop-color="#fbfbfb"/><stop offset="1" stop-color="#fff"/></linearGradient><linearGradient id="linear-gradient-4" x1="29.78" y1="35.46" x2="34.89" y2="35.46" gradientUnits="userSpaceOnUse"><stop offset="0" stop-color="#efab00"/><stop offset="0.29" stop-color="#efac02"/><stop offset="0.45" stop-color="#f0ae0b"/><stop offset="0.58" stop-color="#f0b318"/><stop offset="0.69" stop-color="#f1b92c"/><stop offset="0.8" stop-color="#f3c146"/><stop offset="0.89" stop-color="#f5cc65"/><stop offset="0.98" stop-color="#f7d78a"/><stop offset="1" stop-color="#f7da92"/></linearGradient><linearGradient id="linear-gradient-5" x1="32.33" y1="17.66" x2="32.33" y2="40.51" gradientUnits="userSpaceOnUse"><stop offset="0" stop-color="#efab00"/><stop offset="0.22" stop-color="#efac03"/><stop offset="0.38" stop-color="#f0af0d"/><stop offset="0.53" stop-color="#f1b41d"/><stop offset="0.66" stop-color="#f2bc34"/><stop offset="0.79" stop-color="#f3c552"/><stop offset="0.92" stop-color="#f5d176"/><stop offset="1" stop-color="#f7da92"/></linearGradient></defs><title>2</title><g class="cls-1"><g id="Layer_1" data-name="Layer 1"><path class="cls-2" d="M78.91.07A15.82,15.82,0,0,0,64.56,15.78v27A15.83,15.83,0,0,1,48.78,58.54h-33A15.83,15.83,0,0,1,0,42.75v-27A15.83,15.83,0,0,1,15.78,0H78.91C79.7,0,79.7,0,78.91.07Z"/><g class="cls-3"><rect class="cls-4" x="6.84" y="3.78" width="50.98" height="50.98" rx="17.09"/><path class="cls-5" d="M23.85,4.19h17a16.6,16.6,0,0,1,16.6,16.6v17a16.6,16.6,0,0,1-16.6,16.6h-17A16.59,16.59,0,0,1,7.26,37.75v-17A16.59,16.59,0,0,1,23.85,4.19Z"/><rect class="cls-6" x="7.68" y="4.61" width="49.31" height="49.31" rx="16.1"/><rect class="cls-7" x="8.1" y="5.03" width="48.48" height="48.48" rx="15.6"/><rect class="cls-8" x="8.51" y="5.45" width="47.64" height="47.64" rx="15.1"/><rect class="cls-9" x="8.93" y="5.87" width="46.8" height="46.8" rx="14.61"/><rect class="cls-10" x="9.35" y="6.28" width="45.97" height="45.97" rx="14.11"/><path class="cls-11" d="M23.38,6.7h17.9A13.62,13.62,0,0,1,54.9,20.32v17.9A13.61,13.61,0,0,1,41.29,51.84H23.38A13.61,13.61,0,0,1,9.77,38.22V20.32A13.61,13.61,0,0,1,23.38,6.7Z"/><rect class="cls-12" x="10.19" y="7.12" width="44.3" height="44.3" rx="13.12"/><rect class="cls-13" x="10.6" y="7.54" width="43.46" height="43.46" rx="12.62"/></g><rect class="cls-14" x="10.6" y="7.54" width="43.46" height="43.46" rx="12.62"/><rect class="cls-15" x="15.66" y="12.59" width="33.36" height="33.35" rx="7.57"/><path class="cls-16" d="M34.61,32.59l.25-.89a1.2,1.2,0,0,0-.16-.89,1.15,1.15,0,0,0-.81-.4h-3a1,1,0,0,0-.81.4c-.16.25-.33.65-.16.89l.24.89a1.69,1.69,0,0,0,.84.91l-1.17,5.07c-.16.25,0,.49.25.65l1.78,1.13a.58.58,0,0,0,.8,0l1.78-1.13c.25-.16.25-.4.25-.65l-1.16-5.06A3.22,3.22,0,0,0,34.61,32.59Zm-1.37-1-.16.49c0,.08-.24.24-.41.24h-.89c-.16,0-.4-.08-.4-.24l-.16-.49Zm-1,7.84-1.05-.8L32.27,34l1,4.69Z"/><path class="cls-17" d="M36.5,28.7a6.93,6.93,0,0,0,1.62-4.54c0-3.61-2.62-6.5-5.79-6.5s-5.78,2.89-5.78,6.5a6.91,6.91,0,0,0,1.64,4.53,6.42,6.42,0,0,0-5.25,6.22v4.88a.66.66,0,0,0,.72.72.8.8,0,0,0,.82-.72V34.91A4.84,4.84,0,0,1,29.35,30h.5a5.2,5.2,0,0,0,2.48.64A5.27,5.27,0,0,0,34.85,30h.56a4.84,4.84,0,0,1,4.87,4.87v4.88a.73.73,0,0,0,1.45,0V34.91A6.41,6.41,0,0,0,36.5,28.7ZM28,24.16c0-2.71,1.9-5.05,4.33-5.05s4.34,2.34,4.34,5.05-1.9,5.06-4.34,5.06S28,26.87,28,24.16Z"/></g></g></svg>