<svg xmlns="http://www.w3.org/2000/svg" xmlns:xlink="http://www.w3.org/1999/xlink" viewBox="0 0 79.5 58.54"><defs><style>.cls-1{isolation:isolate;}.cls-2{fill:url(#linear-gradient);}.cls-3{mix-blend-mode:multiply;}.cls-4{fill:#fff;}.cls-5{fill:#fafafa;}.cls-6{fill:#f5f5f5;}.cls-7{fill:#f0f0f1;}.cls-8{fill:#ebebec;}.cls-9{fill:#e5e7e7;}.cls-10{fill:#e0e2e2;}.cls-11{fill:#dbddde;}.cls-12{fill:#d6d8d9;}.cls-13{fill:#d1d3d4;}.cls-14{fill:url(#linear-gradient-2);}.cls-15{fill:url(#linear-gradient-3);}.cls-16{fill:url(#linear-gradient-4);}</style><linearGradient id="linear-gradient" y1="29.27" x2="79.5" y2="29.27" gradientUnits="userSpaceOnUse"><stop offset="0" stop-color="#f7da92"/><stop offset="0.18" stop-color="#f6d37d"/><stop offset="0.56" stop-color="#f3c246"/><stop offset="1" stop-color="#efab00"/></linearGradient><linearGradient id="linear-gradient-2" x1="10.43" y1="29.27" x2="53.89" y2="29.27" gradientUnits="userSpaceOnUse"><stop offset="0" stop-color="#fff"/><stop offset="0.32" stop-color="#fbfbfb"/><stop offset="0.64" stop-color="#efefef"/><stop offset="0.96" stop-color="#dbdbdb"/><stop offset="0.99" stop-color="#d8d8d8"/></linearGradient><linearGradient id="linear-gradient-3" x1="15.48" y1="29.27" x2="48.83" y2="29.27" gradientUnits="userSpaceOnUse"><stop offset="0.01" stop-color="#d8d8d8"/><stop offset="0.04" stop-color="#dbdbdb"/><stop offset="0.36" stop-color="#efefef"/><stop offset="0.68" stop-color="#fbfbfb"/><stop offset="1" stop-color="#fff"/></linearGradient><linearGradient id="linear-gradient-4" x1="31.66" y1="16.6" x2="31.66" y2="43.7" gradientUnits="userSpaceOnUse"><stop offset="0" stop-color="#efab00"/><stop offset="0.42" stop-color="#efac02"/><stop offset="0.57" stop-color="#efae09"/><stop offset="0.67" stop-color="#f0b214"/><stop offset="0.76" stop-color="#f1b725"/><stop offset="0.83" stop-color="#f2be3b"/><stop offset="0.9" stop-color="#f4c757"/><stop offset="0.96" stop-color="#f5d176"/><stop offset="1" stop-color="#f7da92"/></linearGradient></defs><title>6</title><g class="cls-1"><g id="Layer_1" data-name="Layer 1"><path class="cls-2" d="M78.91.07A15.82,15.82,0,0,0,64.56,15.78v27A15.83,15.83,0,0,1,48.78,58.54h-33A15.83,15.83,0,0,1,0,42.75v-27A15.83,15.83,0,0,1,15.78,0H78.91C79.7,0,79.7,0,78.91.07Z"/><g class="cls-3"><rect class="cls-4" x="6.66" y="3.78" width="50.98" height="50.98" rx="17.09"/><path class="cls-5" d="M23.68,4.19h17a16.6,16.6,0,0,1,16.6,16.6v17a16.6,16.6,0,0,1-16.6,16.6h-17A16.59,16.59,0,0,1,7.08,37.75v-17A16.59,16.59,0,0,1,23.68,4.19Z"/><rect class="cls-6" x="7.5" y="4.61" width="49.31" height="49.31" rx="16.1"/><rect class="cls-7" x="7.92" y="5.03" width="48.48" height="48.48" rx="15.6"/><rect class="cls-8" x="8.34" y="5.45" width="47.64" height="47.64" rx="15.1"/><rect class="cls-9" x="8.75" y="5.87" width="46.8" height="46.8" rx="14.61"/><rect class="cls-10" x="9.17" y="6.28" width="45.97" height="45.97" rx="14.11"/><path class="cls-11" d="M23.2,6.7h17.9A13.62,13.62,0,0,1,54.72,20.32v17.9A13.61,13.61,0,0,1,41.11,51.84H23.2A13.61,13.61,0,0,1,9.59,38.22V20.32A13.61,13.61,0,0,1,23.2,6.7Z"/><rect class="cls-12" x="10.01" y="7.12" width="44.3" height="44.3" rx="13.12"/><rect class="cls-13" x="10.43" y="7.54" width="43.46" height="43.46" rx="12.62"/></g><rect class="cls-14" x="10.43" y="7.54" width="43.46" height="43.46" rx="12.62"/><rect class="cls-15" x="15.48" y="12.59" width="33.36" height="33.35" rx="7.57"/><path class="cls-16" d="M34.08,24a3.34,3.34,0,0,0,2.59-2.38l.8-2.6a1.89,1.89,0,0,0-.3-1.6,1.6,1.6,0,0,0-1.4-.8h-8.3c-.6,0-.9.3-1.4.8a1.41,1.41,0,0,0-.3,1.6l1,2.4A3.94,3.94,0,0,0,29.47,24L25.87,39.3c-.2.3,0,.6.3.8l5.1,3.4a.73.73,0,0,0,1,0l5.1-3.4a.83.83,0,0,0,.3-.8Zm-1.51.12.8,3.41-3.9,3.9,1.7-7.31ZM28.27,21l-.8-2.6.2-.2h8.2v.2l-.8,2.6A2.05,2.05,0,0,1,33,22.6h-2.6A2.13,2.13,0,0,1,28.27,21Zm.53,13.28,5-5,.82,3.49L28,39.35l-.36-.25ZM31.87,42l-2.54-1.75L35,34.56l1.06,4.54Z"/></g></g></svg>