<svg xmlns="http://www.w3.org/2000/svg" xmlns:xlink="http://www.w3.org/1999/xlink" viewBox="0 0 79.5 59.19"><defs><style>.cls-1{isolation:isolate;}.cls-2{fill:url(#linear-gradient);}.cls-3{mix-blend-mode:multiply;}.cls-4{fill:#fff;}.cls-5{fill:#fafafa;}.cls-6{fill:#f5f5f5;}.cls-7{fill:#f0f0f1;}.cls-8{fill:#ebebec;}.cls-9{fill:#e5e7e7;}.cls-10{fill:#e0e2e2;}.cls-11{fill:#dbddde;}.cls-12{fill:#d6d8d9;}.cls-13{fill:#d1d3d4;}.cls-14{fill:url(#linear-gradient-2);}.cls-15{fill:url(#linear-gradient-3);}.cls-16{fill:#e7ab00;}</style><linearGradient id="linear-gradient" y1="29.6" x2="79.5" y2="29.6" gradientUnits="userSpaceOnUse"><stop offset="0" stop-color="#f7da92"/><stop offset="0.18" stop-color="#f6d37d"/><stop offset="0.56" stop-color="#f3c246"/><stop offset="1" stop-color="#efab00"/></linearGradient><linearGradient id="linear-gradient-2" x1="10.55" y1="29.27" x2="54.01" y2="29.27" gradientUnits="userSpaceOnUse"><stop offset="0" stop-color="#fff"/><stop offset="0.32" stop-color="#fbfbfb"/><stop offset="0.64" stop-color="#efefef"/><stop offset="0.96" stop-color="#dbdbdb"/><stop offset="0.99" stop-color="#d8d8d8"/></linearGradient><linearGradient id="linear-gradient-3" x1="15.6" y1="29.27" x2="48.96" y2="29.27" gradientUnits="userSpaceOnUse"><stop offset="0.01" stop-color="#d8d8d8"/><stop offset="0.04" stop-color="#dbdbdb"/><stop offset="0.36" stop-color="#efefef"/><stop offset="0.68" stop-color="#fbfbfb"/><stop offset="1" stop-color="#fff"/></linearGradient></defs><title>1-01</title><g class="cls-1"><g id="Layer_1" data-name="Layer 1"><path class="cls-2" d="M78.91.07A15.93,15.93,0,0,0,64.56,16V43.23a15.92,15.92,0,0,1-15.78,16h-33A15.92,15.92,0,0,1,0,43.23V16A15.92,15.92,0,0,1,15.78,0H78.91C79.7,0,79.7,0,78.91.07Z"/><g class="cls-3"><rect class="cls-4" x="6.79" y="3.78" width="50.98" height="50.98" rx="17.09"/><path class="cls-5" d="M23.8,4.19h17a16.6,16.6,0,0,1,16.6,16.6v17a16.6,16.6,0,0,1-16.6,16.6h-17A16.59,16.59,0,0,1,7.21,37.75v-17A16.59,16.59,0,0,1,23.8,4.19Z"/><rect class="cls-6" x="7.63" y="4.61" width="49.31" height="49.31" rx="16.1"/><rect class="cls-7" x="8.04" y="5.03" width="48.48" height="48.48" rx="15.6"/><rect class="cls-8" x="8.46" y="5.45" width="47.64" height="47.64" rx="15.1"/><rect class="cls-9" x="8.88" y="5.87" width="46.8" height="46.8" rx="14.61"/><rect class="cls-10" x="9.3" y="6.28" width="45.97" height="45.97" rx="14.11"/><path class="cls-11" d="M23.33,6.7H41.23A13.61,13.61,0,0,1,54.85,20.32v17.9A13.62,13.62,0,0,1,41.23,51.84H23.33A13.61,13.61,0,0,1,9.71,38.22V20.32A13.61,13.61,0,0,1,23.33,6.7Z"/><rect class="cls-12" x="10.13" y="7.12" width="44.3" height="44.3" rx="13.12"/><rect class="cls-13" x="10.55" y="7.54" width="43.46" height="43.46" rx="12.62"/></g><rect class="cls-14" x="10.55" y="7.54" width="43.46" height="43.46" rx="12.62"/><rect class="cls-15" x="15.6" y="12.59" width="33.36" height="33.35" rx="7.57"/><path class="cls-16" d="M36.08,41.45a2.17,2.17,0,0,1-1.4-.5l-7.8-6.4a.71.71,0,0,1-.3-.6v-8.5a.85.85,0,0,1,.3-.6l7.8-6.4a3,3,0,0,1,1.4-.5,2.43,2.43,0,0,1,2.4,2.4v18.9A2.4,2.4,0,0,1,36.08,41.45Zm-8.1-8,7.5,6.2c.5.3,1.3.2,1.3-.6V20.15a.77.77,0,0,0-1.3-.6L28,25.75Z"/><path class="cls-16" d="M27.18,34.75h-4.8a.74.74,0,0,1-.8-.8v-8.5a.74.74,0,0,1,.8-.8h4.8Zm-4-1.6h3.2v-6.9h-3.2Z"/><path class="cls-16" d="M37.68,30.65h1.6a.74.74,0,0,0,.8-.8v-.5a.74.74,0,0,0-.8-.8h-1.6V27h1.6a2.43,2.43,0,0,1,2.4,2.4v.5a2.43,2.43,0,0,1-2.4,2.4h-1.6Z"/></g></g></svg>