<svg xmlns="http://www.w3.org/2000/svg" xmlns:xlink="http://www.w3.org/1999/xlink" viewBox="0 0 79.5 58.54"><defs><style>.cls-1{isolation:isolate;}.cls-2{fill:url(#linear-gradient);}.cls-3{mix-blend-mode:multiply;}.cls-4{fill:#fff;}.cls-5{fill:#fafafa;}.cls-6{fill:#f5f5f5;}.cls-7{fill:#f0f0f1;}.cls-8{fill:#ebebec;}.cls-9{fill:#e5e7e7;}.cls-10{fill:#e0e2e2;}.cls-11{fill:#dbddde;}.cls-12{fill:#d6d8d9;}.cls-13{fill:#d1d3d4;}.cls-14{fill:url(#linear-gradient-2);}.cls-15{fill:url(#linear-gradient-3);}.cls-16{fill:url(#linear-gradient-4);}.cls-17{fill:url(#linear-gradient-5);}.cls-18{fill:none;}.cls-19{fill:#e7ab00;}</style><linearGradient id="linear-gradient" y1="29.27" x2="79.5" y2="29.27" gradientUnits="userSpaceOnUse"><stop offset="0" stop-color="#f7da92"/><stop offset="0.18" stop-color="#f6d37d"/><stop offset="0.56" stop-color="#f3c246"/><stop offset="1" stop-color="#efab00"/></linearGradient><linearGradient id="linear-gradient-2" x1="10.6" y1="29.27" x2="54.06" y2="29.27" gradientUnits="userSpaceOnUse"><stop offset="0" stop-color="#fff"/><stop offset="0.32" stop-color="#fbfbfb"/><stop offset="0.64" stop-color="#efefef"/><stop offset="0.96" stop-color="#dbdbdb"/><stop offset="0.99" stop-color="#d8d8d8"/></linearGradient><linearGradient id="linear-gradient-3" x1="15.66" y1="29.27" x2="49.01" y2="29.27" gradientUnits="userSpaceOnUse"><stop offset="0.01" stop-color="#d8d8d8"/><stop offset="0.04" stop-color="#dbdbdb"/><stop offset="0.36" stop-color="#efefef"/><stop offset="0.68" stop-color="#fbfbfb"/><stop offset="1" stop-color="#fff"/></linearGradient><linearGradient id="linear-gradient-4" x1="32.33" y1="21.08" x2="32.33" y2="37.46" gradientUnits="userSpaceOnUse"><stop offset="0" stop-color="#efab00"/><stop offset="0.29" stop-color="#efac02"/><stop offset="0.45" stop-color="#f0ae0b"/><stop offset="0.58" stop-color="#f0b318"/><stop offset="0.69" stop-color="#f1b92c"/><stop offset="0.8" stop-color="#f3c146"/><stop offset="0.89" stop-color="#f5cc65"/><stop offset="0.98" stop-color="#f7d78a"/><stop offset="1" stop-color="#f7da92"/></linearGradient><linearGradient id="linear-gradient-5" x1="30.61" y1="34.04" x2="34.07" y2="34.04" xlink:href="#linear-gradient-4"/></defs><title>3</title><g class="cls-1"><g id="Layer_1" data-name="Layer 1"><path class="cls-2" d="M78.91.07A15.82,15.82,0,0,0,64.56,15.78v27A15.83,15.83,0,0,1,48.78,58.54h-33A15.83,15.83,0,0,1,0,42.75v-27A15.83,15.83,0,0,1,15.78,0H78.91C79.7,0,79.7,0,78.91.07Z"/><g class="cls-3"><rect class="cls-4" x="6.84" y="3.78" width="50.98" height="50.98" rx="17.09"/><path class="cls-5" d="M23.85,4.19h17a16.6,16.6,0,0,1,16.6,16.6v17a16.6,16.6,0,0,1-16.6,16.6h-17A16.59,16.59,0,0,1,7.26,37.75v-17A16.59,16.59,0,0,1,23.85,4.19Z"/><rect class="cls-6" x="7.68" y="4.61" width="49.31" height="49.31" rx="16.1"/><rect class="cls-7" x="8.1" y="5.03" width="48.48" height="48.48" rx="15.6"/><rect class="cls-8" x="8.51" y="5.45" width="47.64" height="47.64" rx="15.1"/><rect class="cls-9" x="8.93" y="5.87" width="46.8" height="46.8" rx="14.61"/><rect class="cls-10" x="9.35" y="6.28" width="45.97" height="45.97" rx="14.11"/><path class="cls-11" d="M23.38,6.7h17.9A13.62,13.62,0,0,1,54.9,20.32v17.9A13.61,13.61,0,0,1,41.29,51.84H23.38A13.61,13.61,0,0,1,9.77,38.22V20.32A13.61,13.61,0,0,1,23.38,6.7Z"/><rect class="cls-12" x="10.19" y="7.12" width="44.3" height="44.3" rx="13.12"/><rect class="cls-13" x="10.6" y="7.54" width="43.46" height="43.46" rx="12.62"/></g><rect class="cls-14" x="10.6" y="7.54" width="43.46" height="43.46" rx="12.62"/><rect class="cls-15" x="15.66" y="12.59" width="33.36" height="33.35" rx="7.57"/><path class="cls-16" d="M43.07,26.86a3.74,3.74,0,0,0,.65-2.12,3.4,3.4,0,1,0-6.77,0,3.74,3.74,0,0,0,.69,2.14,3.59,3.59,0,0,0-1.5,1.05,4.62,4.62,0,0,0,.08-1,4.15,4.15,0,0,0-3.93-4.4,4.15,4.15,0,0,0-3.94,4.4,5.05,5.05,0,0,0,.08.88,3.55,3.55,0,0,0-1.46-1,3.74,3.74,0,0,0,.65-2.12,3.4,3.4,0,1,0-6.77,0,3.74,3.74,0,0,0,.69,2.14,3.51,3.51,0,0,0-2.33,3.26v2.47a.73.73,0,1,0,1.46,0V30.14a2,2,0,0,1,2-2H23v0a3,3,0,0,0,1.28.3,3.07,3.07,0,0,0,1.37-.33v.05h.28a2,2,0,0,1,2,2,.51.51,0,0,0,0,.13,4.17,4.17,0,0,0-1.67,3.34v3.11a.73.73,0,1,0,1.46,0V33.61a2.82,2.82,0,0,1,2.75-2.74h.09a3.67,3.67,0,0,0,1.74.46A3.74,3.74,0,0,0,34,30.87h.17A2.81,2.81,0,0,1,37,33.61v3.11a.74.74,0,1,0,1.47,0V33.61a4.19,4.19,0,0,0-1.67-3.34.51.51,0,0,0,0-.13,2,2,0,0,1,2-2h.28v0a3,3,0,0,0,1.28.3,3.07,3.07,0,0,0,1.37-.33v.05H42a2,2,0,0,1,2,2v2.47a.73.73,0,1,0,1.46,0V30.14A3.54,3.54,0,0,0,43.07,26.86Zm-18.83.08a2.22,2.22,0,0,1,0-4.4,2.06,2.06,0,0,1,1.92,2.2A2.13,2.13,0,0,1,24.24,26.94Zm5.58,0A2.77,2.77,0,0,1,32.29,24a2.7,2.7,0,0,1,2.47,2.93,2.5,2.5,0,1,1-4.94,0Zm10.52,0a2.22,2.22,0,0,1,0-4.4,2.06,2.06,0,0,1,1.92,2.2A2.13,2.13,0,0,1,40.34,26.94Z"/><path class="cls-17" d="M33.88,32.09l.17-.6a.82.82,0,0,0-.11-.6.79.79,0,0,0-.55-.27h-2a.69.69,0,0,0-.55.27c-.11.17-.22.44-.11.6l.16.6a1.19,1.19,0,0,0,.57.62l-.78,3.43c-.11.17,0,.33.16.44l1.2.77a.31.31,0,0,0,.28.11.29.29,0,0,0,.27-.11l1.2-.77c.17-.11.17-.27.17-.44l-.79-3.42A2,2,0,0,0,33.88,32.09ZM33,31.44l-.11.33c0,.05-.16.16-.27.16H32c-.11,0-.28-.05-.28-.16l-.1-.33Zm-.65,5.3-.71-.54L32.3,33,33,36.2Z"/><path class="cls-18" d="M40.67,28.89h.47c.09,0,.22-.08.22-.12l.08-.26H40.37l.09.26C40.46,28.85,40.59,28.89,40.67,28.89Z"/><polygon class="cls-18" points="40.37 32.23 40.93 32.66 41.48 32.23 40.93 29.75 40.37 32.23"/><path class="cls-19" d="M42.17,29l.13-.47a.62.62,0,0,0-.09-.47.58.58,0,0,0-.43-.21H40.2a.5.5,0,0,0-.42.21c-.09.13-.18.34-.09.47l.13.47a.9.9,0,0,0,.44.48l-.61,2.69c-.09.12,0,.25.13.34l.94.6a.32.32,0,0,0,.42,0l.94-.6a.36.36,0,0,0,.13-.34l-.61-2.68A1.7,1.7,0,0,0,42.17,29Zm-.73-.51-.08.26s-.13.12-.22.12h-.47c-.08,0-.21,0-.21-.12l-.09-.26Zm-.51,4.15-.56-.43.56-2.48.56,2.48Z"/><path class="cls-18" d="M23.29,28.89h.47c.08,0,.21-.08.21-.12l.09-.26H23l.08.26C23.07,28.85,23.2,28.89,23.29,28.89Z"/><polygon class="cls-18" points="22.99 32.23 23.54 32.66 24.1 32.23 23.54 29.75 22.99 32.23"/><path class="cls-19" d="M24.78,29l.13-.47a.62.62,0,0,0-.09-.47.56.56,0,0,0-.42-.21H22.82a.52.52,0,0,0-.43.21c-.09.13-.17.34-.09.47l.13.47a.9.9,0,0,0,.44.48l-.61,2.69c-.08.12,0,.25.13.34l.94.6a.24.24,0,0,0,.21.08.26.26,0,0,0,.22-.08l.94-.6a.37.37,0,0,0,.12-.34l-.61-2.68A1.7,1.7,0,0,0,24.78,29Zm-.72-.51-.09.26s-.13.12-.21.12h-.47c-.09,0-.22,0-.22-.12L23,28.51Zm-.52,4.15L23,32.23l.55-2.48.56,2.48Z"/></g></g></svg>