<?xml version="1.0" standalone="no"?>
<!DOCTYPE svg PUBLIC "-//W3C//DTD SVG 20010904//EN"
 "http://www.w3.org/TR/2001/REC-SVG-20010904/DTD/svg10.dtd">
<svg version="1.0" xmlns="http://www.w3.org/2000/svg"
 width="671.000000pt" height="503.000000pt" viewBox="0 0 671.000000 503.000000"
 preserveAspectRatio="xMidYMid meet">

<g transform="translate(0.000000,503.000000) scale(0.100000,-0.100000)"
fill="#000000" stroke="none">
<path d="M1110 4873 c-173 -27 -319 -84 -457 -176 -244 -162 -400 -404 -458
-708 -13 -71 -15 -263 -15 -1519 0 -1256 2 -1448 15 -1519 83 -438 377 -750
815 -868 61 -16 210 -18 2320 -20 1976 -3 2265 -1 2342 12 461 79 829 455 913
934 23 129 22 2860 0 2980 -83 437 -377 750 -815 868 -61 16 -209 18 -2350 19
-1257 1 -2296 0 -2310 -3z m4565 -446 c33 -9 98 -36 145 -59 117 -57 247 -186
307 -305 42 -83 82 -228 67 -243 -12 -10 -2409 -1402 -2459 -1427 -181 -91
-533 -95 -746 -8 -30 12 -585 330 -1232 706 l-1177 684 0 36 c0 59 37 187 77
263 52 98 192 238 288 288 87 44 155 67 237 77 34 5 1046 8 2248 7 2050 -1
2189 -2 2245 -19z m524 -2264 c-1 -637 -4 -1171 -8 -1187 -6 -28 -45 18 -659
770 -358 439 -651 802 -649 807 2 8 1295 764 1310 766 4 1 6 -520 6 -1156z
m-4954 752 c330 -191 606 -353 613 -359 10 -10 -121 -176 -625 -793 -400 -491
-640 -777 -645 -770 -4 7 -8 529 -8 1160 l0 1149 33 -20 c17 -11 302 -176 632
-367z m3946 -1380 c363 -445 686 -841 717 -879 l56 -68 -34 -29 c-48 -40 -182
-105 -260 -126 -61 -17 -199 -18 -2280 -18 -2081 0 -2219 1 -2280 18 -87 23
-215 88 -267 134 l-43 38 708 867 c389 477 711 867 716 868 6 0 131 -70 279
-156 318 -184 381 -215 507 -249 281 -75 690 -48 896 59 38 20 191 107 339
195 149 87 273 158 277 157 4 0 305 -365 669 -811z"/>
</g>
</svg>
