<svg id="Layer_1" data-name="Layer 1" xmlns="http://www.w3.org/2000/svg" viewBox="0 0 3.3 6.2"><defs><style>.cls-1{fill:#fff;}</style></defs><title>Facebook</title><path class="cls-1" d="M2,.3A3.81,3.81,0,0,1,3,.4l-.15.86a1.92,1.92,0,0,0-.46-.07c-.23,0-.43.08-.43.31v.65h.92L2.82,3H2V5.9H.88V3H.3V2.15H.88V1.59A1.51,1.51,0,0,1,1.06.72,1,1,0,0,1,2,.3m.92,1.85h0M2,0A1.32,1.32,0,0,0,.83.54,1.73,1.73,0,0,0,.58,1.59v.26H.3a.29.29,0,0,0-.3.3V3a.3.3,0,0,0,.3.3H.58V5.9a.3.3,0,0,0,.3.3H2a.3.3,0,0,0,.3-.3V3.29h.56A.3.3,0,0,0,3.12,3l.06-.81V2.15a.29.29,0,0,0-.29-.3H2.26V1.51a.31.31,0,0,1,.13,0,1.55,1.55,0,0,1,.38.06h.08A.28.28,0,0,0,3,1.51a.26.26,0,0,0,.14-.2L3.29.45A.3.3,0,0,0,3.1.12,4,4,0,0,0,2,0Z"/></svg>