<?xml version="1.0" standalone="no"?>
<!DOCTYPE svg PUBLIC "-//W3C//DTD SVG 20010904//EN"
 "http://www.w3.org/TR/2001/REC-SVG-20010904/DTD/svg10.dtd">
<svg version="1.0" xmlns="http://www.w3.org/2000/svg"
 width="642.000000pt" height="533.000000pt" viewBox="0 0 642.000000 533.000000"
 preserveAspectRatio="xMidYMid meet">

<g transform="translate(0.000000,533.000000) scale(0.100000,-0.100000)"
fill="#000000" stroke="none">
<path d="M1790 5103 c-86 -10 -290 -57 -378 -88 -225 -78 -399 -176 -592 -329
-214 -171 -363 -361 -489 -620 -120 -247 -170 -459 -178 -756 -13 -458 94
-802 383 -1231 408 -607 846 -1051 1406 -1427 294 -197 587 -340 953 -465
l150 -51 185 1 185 1 150 50 c571 191 1043 474 1540 923 312 282 709 766 920
1124 105 179 203 431 243 630 60 292 55 616 -13 885 -134 536 -567 1016 -1113
1236 -206 83 -428 124 -679 124 -440 0 -794 -119 -1185 -400 l-48 -34 -32 24
c-285 210 -604 343 -950 395 -90 14 -364 18 -458 8z m435 -367 c316 -49 581
-179 835 -411 93 -85 129 -105 190 -105 63 0 104 23 193 107 181 173 367 287
582 357 144 47 212 58 405 63 163 5 200 3 298 -16 319 -61 603 -222 838 -474
90 -97 149 -184 215 -315 57 -113 80 -180 111 -317 20 -86 23 -129 23 -310 0
-183 -3 -225 -24 -325 -52 -249 -146 -469 -298 -693 -461 -680 -1032 -1202
-1663 -1517 -268 -134 -550 -238 -672 -247 -72 -6 -156 12 -318 69 -505 177
-1016 506 -1434 923 -430 428 -803 957 -909 1290 -99 308 -99 657 0 945 35
102 120 270 181 355 215 305 562 533 927 610 132 28 375 33 520 11z"/>
</g>
</svg>
