<?xml version="1.0" encoding="utf-8"?>
<!-- Generator: Adobe Illustrator 23.1.0, SVG Export Plug-In . SVG Version: 6.00 Build 0)  -->
<svg version="1.1" id="Icons" xmlns="http://www.w3.org/2000/svg" xmlns:xlink="http://www.w3.org/1999/xlink" x="0px" y="0px"
	 viewBox="0 0 36 36" style="enable-background:new 0 0 36 36;" xml:space="preserve">
<style type="text/css">
	.st0{fill:#FFFFFF;}
</style>
<path class="st0" d="M29,0H7C3.1,0,0,3.1,0,7v7.3V29C0,32.9,3.1,36,7,36H29c3.8,0,7-3.1,7-6.9V14.3V7C36,3.1,32.9,0,29,0z M31,4.2
	h0.8v0.8v5.3l-6.1,0l0-6.1L31,4.2z M12.9,14.3c1.1-1.6,3-2.6,5.1-2.6s4,1.1,5.1,2.6c0.8,1,1.2,2.3,1.2,3.7c0,3.5-2.8,6.3-6.3,6.3
	s-6.3-2.8-6.3-6.3C11.7,16.6,12.1,15.3,12.9,14.3z M32.5,29c0,1.9-1.5,3.4-3.5,3.4H7c-1.9,0-3.5-1.5-3.5-3.4V14.3h5.4
	c-0.5,1.1-0.7,2.4-0.7,3.7c0,5.4,4.4,9.8,9.8,9.8c5.4,0,9.8-4.4,9.8-9.8c0-1.3-0.3-2.6-0.7-3.7h5.4L32.5,29L32.5,29z"/>
</svg>
