<?xml version="1.0" encoding="utf-8"?>
<!-- Generator: Adobe Illustrator 23.1.0, SVG Export Plug-In . SVG Version: 6.00 Build 0)  -->
<svg version="1.1" id="Icons" xmlns="http://www.w3.org/2000/svg" xmlns:xlink="http://www.w3.org/1999/xlink" x="0px" y="0px"
	 viewBox="0 0 36 35.97" style="enable-background:new 0 0 36 35.97;" xml:space="preserve">
<style type="text/css">
	.st0{fill:#191932;}
</style>
<path class="st0" d="M29.04,0H6.96C3.12,0,0,3.12,0,6.95v7.34v14.73c0,3.83,3.12,6.95,6.96,6.95h22.08c3.84,0,6.96-3.12,6.96-6.95
	V14.29V6.95C36,3.12,32.88,0,29.04,0z M31.04,4.15l0.79,0v0.79v5.3l-6.08,0.02l-0.02-6.1L31.04,4.15z M12.86,14.29
	c1.15-1.59,3.02-2.64,5.14-2.64c2.12,0,3.99,1.05,5.14,2.64c0.75,1.04,1.2,2.31,1.2,3.69c0,3.49-2.84,6.33-6.34,6.33
	c-3.5,0-6.34-2.84-6.34-6.33C11.66,16.61,12.11,15.34,12.86,14.29z M32.49,29.02c0,1.9-1.55,3.45-3.45,3.45H6.96
	c-1.9,0-3.45-1.54-3.45-3.45V14.29h5.37c-0.46,1.14-0.73,2.39-0.73,3.69c0,5.43,4.42,9.84,9.84,9.84c5.43,0,9.84-4.41,9.84-9.84
	c0-1.31-0.26-2.55-0.72-3.69h5.37V29.02z"/>
</svg>
