<?xml version="1.0" encoding="utf-8"?>
<!-- Generator: Adobe Illustrator 23.1.0, SVG Export Plug-In . SVG Version: 6.00 Build 0)  -->
<svg version="1.1" id="Icons" xmlns="http://www.w3.org/2000/svg" xmlns:xlink="http://www.w3.org/1999/xlink" x="0px" y="0px"
	 viewBox="0 0 36 33.08" style="enable-background:new 0 0 36 33.08;" xml:space="preserve">
<style type="text/css">
	.st0{fill:#191932;}
</style>
<path class="st0" d="M7.93,33.08H0.91V10.61h7.02V33.08z M4.24,7.8H4.18C1.65,7.8,0,6.08,0,3.9C0,1.68,1.69,0,4.29,0
	c2.59,0,4.18,1.68,4.23,3.9C8.52,6.07,6.87,7.8,4.24,7.8z M36,33.08h-7.96V21.45c0-3.04-1.24-5.12-3.98-5.12
	c-2.09,0-3.26,1.4-3.8,2.75c-0.21,0.48-0.17,1.16-0.17,1.83v12.16h-7.88c0,0,0.1-20.6,0-22.47h7.88v3.52c0.47-1.54,2.98-3.74,7-3.74
	c4.99,0,8.91,3.23,8.91,10.19V33.08z"/>
</svg>
