<svg id="Layer_1" data-name="Layer 1" xmlns="http://www.w3.org/2000/svg" viewBox="0 0 5.88 5.88"><defs><style>.cls-1{fill:#fff;}</style></defs><title>Linkedin</title><path class="cls-1" d="M5.23,5.88H.65A.65.65,0,0,1,0,5.23V.65A.65.65,0,0,1,.65,0H5.23a.65.65,0,0,1,.65.65V5.23A.65.65,0,0,1,5.23,5.88ZM.65.3A.35.35,0,0,0,.3.65V5.23a.36.36,0,0,0,.35.36H5.23a.36.36,0,0,0,.36-.36V.65A.36.36,0,0,0,5.23.3Z"/><path class="cls-1" d="M1.62,5.06H1.05a.28.28,0,0,1-.28-.28V2.4a.29.29,0,0,1,.28-.28h.57a.28.28,0,0,1,.28.28V4.78A.27.27,0,0,1,1.62,5.06Zm0-2.66-.55,0,0,2.36H1.6Z"/><path class="cls-1" d="M1.34,2.05a.61.61,0,0,1-.62-.61A.62.62,0,0,1,1.34.82.61.61,0,0,1,2,1.44.61.61,0,0,1,1.34,2.05Zm0-.93a.32.32,0,1,0,0,.63.32.32,0,0,0,0-.63Z"/><path class="cls-1" d="M4.82,5.06H4.21a.27.27,0,0,1-.27-.27V3.63a.74.74,0,0,0-.11-.47.24.24,0,0,0-.18-.06c-.23,0-.3.23-.32.42V4.79a.27.27,0,0,1-.27.27H2.47a.27.27,0,0,1-.27-.27V2.39a.27.27,0,0,1,.27-.27h.59a.29.29,0,0,1,.24.14A1.13,1.13,0,0,1,4,2.08a1,1,0,0,1,1,.61,2.31,2.31,0,0,1,.14.94V4.79A.27.27,0,0,1,4.82,5.06Zm-.59-.29h.56V3.64a2.24,2.24,0,0,0-.11-.84A.68.68,0,0,0,4,2.38a.69.69,0,0,0-.66.3.15.15,0,0,1-.17.06A.15.15,0,0,1,3,2.6V2.42H2.5V4.77H3V3.51c0-.45.27-.71.62-.71a.55.55,0,0,1,.4.15,1,1,0,0,1,.18.69Z"/></svg>