<?xml version="1.0" encoding="utf-8"?>
<!-- Generator: Adobe Illustrator 23.1.0, SVG Export Plug-In . SVG Version: 6.00 Build 0)  -->
<svg version="1.1" id="Icons" xmlns="http://www.w3.org/2000/svg" xmlns:xlink="http://www.w3.org/1999/xlink" x="0px" y="0px"
	 viewBox="0 0 36 33.1" style="enable-background:new 0 0 36 33.1;" xml:space="preserve">
<style type="text/css">
	.st0{fill:#FFFFFF;}
</style>
<path class="st0" d="M7.9,33.1h-7V10.6h7V33.1z M4.2,7.8L4.2,7.8C1.6,7.8,0,6.1,0,3.9C0,1.7,1.7,0,4.3,0c2.6,0,4.2,1.7,4.2,3.9
	C8.5,6.1,6.9,7.8,4.2,7.8z M36,33.1h-8V21.5c0-3-1.2-5.1-4-5.1c-2.1,0-3.3,1.4-3.8,2.8c-0.2,0.5-0.2,1.2-0.2,1.8v12.2h-7.9
	c0,0,0.1-20.6,0-22.5h7.9v3.5c0.5-1.5,3-3.7,7-3.7c5,0,8.9,3.2,8.9,10.2V33.1z"/>
</svg>
