<?xml version="1.0" standalone="no"?>
<!DOCTYPE svg PUBLIC "-//W3C//DTD SVG 20010904//EN"
 "http://www.w3.org/TR/2001/REC-SVG-20010904/DTD/svg10.dtd">
<svg version="1.0" xmlns="http://www.w3.org/2000/svg"
 width="525.000000pt" height="773.000000pt" viewBox="0 0 525.000000 773.000000"
 preserveAspectRatio="xMidYMid meet">

<g transform="translate(0.000000,773.000000) scale(0.100000,-0.100000)"
fill="#000000" stroke="none">
<path d="M1590 7618 c-39 -23 -64 -48 -86 -84 -16 -29 -115 -232 -220 -452
l-189 -399 -250 -119 c-585 -277 -649 -309 -682 -347 -64 -73 -65 -68 121
-581 91 -251 166 -462 166 -469 0 -7 -72 -210 -160 -452 -102 -280 -160 -453
-160 -478 0 -47 27 -102 72 -145 23 -22 164 -95 419 -217 230 -110 383 -189
383 -197 -1 -7 -214 -591 -474 -1297 l-472 -1283 4 -77 c4 -60 10 -85 31 -118
67 -105 95 -105 691 -5 l468 79 132 -166 c72 -91 207 -262 300 -378 92 -117
183 -226 202 -242 43 -38 104 -55 177 -48 63 6 91 24 127 82 10 16 107 271
215 565 108 294 200 541 205 549 5 9 17 -11 35 -60 296 -777 418 -1085 440
-1115 45 -59 126 -79 218 -53 56 15 89 49 273 282 93 116 228 287 300 378
l132 166 468 -79 c324 -54 485 -77 520 -74 57 5 137 41 171 78 27 29 53 89 53
124 0 14 -146 407 -324 873 -563 1470 -697 1823 -694 1826 2 1 185 89 408 195
223 106 416 202 429 214 29 26 60 92 61 128 0 14 -74 230 -165 478 -91 248
-165 459 -165 467 0 9 72 213 160 454 91 250 160 453 160 473 0 46 -13 79 -52
128 -35 43 -134 95 -684 353 l-232 109 -30 65 c-136 300 -390 821 -411 844
-37 40 -73 57 -123 57 -30 0 -175 -48 -495 -164 l-452 -163 -438 158 c-241 88
-458 162 -483 165 -39 5 -53 1 -100 -28z m609 -598 c308 -114 388 -140 431
-140 43 0 123 26 433 140 209 78 383 137 387 133 6 -7 292 -610 348 -733 28
-61 49 -90 67 -90 7 0 185 -82 396 -183 l384 -182 -137 -370 c-181 -488 -181
-404 -2 -888 80 -218 133 -372 127 -378 -8 -8 -653 -317 -765 -367 -39 -17
-49 -27 -58 -59 -5 -21 -90 -194 -188 -384 l-177 -346 -375 138 c-498 183
-422 183 -893 10 -194 -71 -364 -134 -378 -139 l-26 -10 -183 386 c-100 213
-187 397 -192 409 -6 12 -25 27 -42 34 -61 25 -761 360 -769 368 -5 5 50 167
127 376 177 478 175 412 26 816 -61 165 -123 332 -138 372 l-28 72 390 184
c215 101 398 186 406 190 8 5 25 28 38 52 59 112 404 729 408 729 2 0 174 -63
383 -140z m2130 -4754 c194 -527 350 -960 348 -962 -2 -3 -166 21 -363 52
-241 37 -379 54 -420 52 -108 -7 -128 -25 -403 -368 l-244 -304 -12 35 c-7 19
-103 284 -214 590 l-201 556 159 434 c88 239 163 444 168 456 8 21 11 20 177
-48 184 -75 222 -82 291 -50 61 27 102 83 173 231 35 74 87 182 114 240 l50
105 13 -30 c7 -16 171 -461 364 -989z m-2900 683 c111 -232 132 -258 220 -267
44 -4 84 10 505 183 l456 187 96 -38 c81 -33 95 -42 91 -59 -2 -11 -143 -398
-312 -860 -169 -462 -354 -965 -410 -1119 l-102 -278 -256 319 c-141 176 -263
325 -270 332 -8 6 -41 16 -73 22 -53 9 -99 4 -443 -51 -211 -33 -385 -59 -388
-57 -2 3 117 335 265 738 149 404 314 855 368 1003 l98 269 28 -59 c15 -33 72
-152 127 -265z"/>
</g>
</svg>
