<?xml version="1.0" standalone="no"?>
<!DOCTYPE svg PUBLIC "-//W3C//DTD SVG 20010904//EN"
 "http://www.w3.org/TR/2001/REC-SVG-20010904/DTD/svg10.dtd">
<svg version="1.0" xmlns="http://www.w3.org/2000/svg"
 width="695.000000pt" height="692.000000pt" viewBox="0 0 695.000000 692.000000"
 preserveAspectRatio="xMidYMid meet">

<g transform="translate(0.000000,692.000000) scale(0.100000,-0.100000)"
fill="#000000" stroke="none">
<path d="M1425 6854 c-186 -30 -328 -114 -481 -281 -650 -713 -922 -1455 -772
-2108 39 -169 128 -372 231 -525 188 -278 560 -758 858 -1106 503 -586 1195
-1269 1785 -1763 286 -239 767 -607 944 -722 297 -193 650 -289 1005 -275 575
22 1119 330 1613 911 173 203 226 335 226 560 0 153 -20 241 -86 369 -39 75
-67 106 -362 404 -322 325 -392 386 -502 441 -101 50 -174 65 -319 65 -144 0
-218 -15 -317 -64 -99 -49 -148 -89 -308 -245 -85 -84 -171 -161 -190 -171
-44 -22 -125 -23 -165 -2 -93 50 -492 408 -910 818 -121 118 -299 290 -396
382 -161 153 -396 399 -604 633 -218 244 -303 354 -326 420 -21 61 -25 145 -8
178 7 12 84 96 173 187 137 140 168 177 203 246 67 128 87 216 87 369 0 153
-20 241 -86 369 -39 75 -67 106 -362 404 -177 178 -348 344 -382 368 -77 55
-163 98 -239 118 -60 17 -253 29 -310 20z m223 -430 c48 -22 109 -78 370 -338
321 -318 340 -341 377 -455 24 -73 17 -209 -12 -266 -12 -22 -85 -103 -163
-180 -148 -146 -200 -212 -240 -305 -20 -45 -25 -76 -28 -175 -3 -111 -2 -127
26 -212 40 -126 83 -197 204 -343 182 -218 307 -351 882 -939 684 -701 932
-935 1198 -1137 122 -93 200 -135 310 -169 79 -24 99 -27 205 -23 189 6 242
36 478 268 189 186 206 195 355 195 148 0 152 -3 521 -348 286 -268 318 -300
341 -354 44 -100 51 -131 46 -222 -6 -111 -22 -143 -135 -252 -329 -320 -697
-545 -1048 -642 -164 -45 -220 -52 -420 -51 -178 1 -197 3 -305 31 -210 56
-344 126 -620 328 -699 510 -1317 1060 -1978 1761 -387 409 -587 642 -908
1059 -274 355 -392 532 -458 686 -83 191 -112 354 -103 574 14 347 136 672
389 1030 139 196 332 411 403 447 123 64 222 74 313 32z"/>
</g>
</svg>
