<svg id="Layer_1" data-name="Layer 1" xmlns="http://www.w3.org/2000/svg" viewBox="0 0 5.48 4.51"><defs><style>.cls-1{fill:#fff;}</style></defs><title>Twitter</title><path class="cls-1" d="M1.78,4.51A3.13,3.13,0,0,1,.07,4,.16.16,0,0,1,0,3.83a.14.14,0,0,1,.16-.09,2,2,0,0,0,1.16-.22,1.18,1.18,0,0,1-.74-.77.12.12,0,0,1,0-.14l0,0a1.21,1.21,0,0,1-.44-.94.17.17,0,0,1,.07-.13.18.18,0,0,1,.1,0A1.18,1.18,0,0,1,.22.88,1.16,1.16,0,0,1,.38.27.2.2,0,0,1,.5.19.16.16,0,0,1,.63.25a2.86,2.86,0,0,0,1.9,1V1.21A1.21,1.21,0,0,1,3.74,0a1.24,1.24,0,0,1,.82.32A1.76,1.76,0,0,0,5.11.1a.15.15,0,0,1,.17,0,.14.14,0,0,1,0,.16,1.11,1.11,0,0,1-.12.27l.06,0a.17.17,0,0,1,.18,0,.17.17,0,0,1,0,.18A2.18,2.18,0,0,1,5,1.27v.07A3.13,3.13,0,0,1,1.78,4.51ZM.75,4a2.81,2.81,0,0,0,1,.19A2.85,2.85,0,0,0,4.66,1.34a.53.53,0,0,0,0-.13.15.15,0,0,1,.07-.13L4.88.94,4.74,1a.14.14,0,0,1-.16-.1A.15.15,0,0,1,4.65.69L4.81.56,4.54.63a.12.12,0,0,1-.13,0,.92.92,0,0,0-1.59.62.76.76,0,0,0,0,.21.15.15,0,0,1,0,.13.15.15,0,0,1-.13.05A3.17,3.17,0,0,1,.55.62a1.09,1.09,0,0,0,0,.26.91.91,0,0,0,.4.76A.15.15,0,0,1,1,1.81a.15.15,0,0,1-.15.1,1.35,1.35,0,0,1-.29,0,.89.89,0,0,0,.7.67.14.14,0,0,1,.12.14.15.15,0,0,1-.11.15.86.86,0,0,1-.28,0,.89.89,0,0,0,.76.42.18.18,0,0,1,.14.11.14.14,0,0,1-.05.16A2.27,2.27,0,0,1,.75,4Z"/></svg>