<?xml version="1.0" encoding="utf-8"?>
<!-- Generator: Adobe Illustrator 23.1.0, SVG Export Plug-In . SVG Version: 6.00 Build 0)  -->
<svg version="1.1" id="Icons" xmlns="http://www.w3.org/2000/svg" xmlns:xlink="http://www.w3.org/1999/xlink" x="0px" y="0px"
	 viewBox="0 0 36 29.3" style="enable-background:new 0 0 36 29.3;" xml:space="preserve">
<style type="text/css">
	.st0{fill:#FFFFFF;}
</style>
<path class="st0" d="M36,3.5c-1.3,0.6-2.8,1-4.2,1.2c1.5-0.9,2.7-2.4,3.3-4.1c-1.4,0.9-3,1.5-4.7,1.8C29,0.9,27,0,24.9,0
	c-4.1,0-7.4,3.3-7.4,7.4c0,0.6,0.1,1.1,0.2,1.7C11.6,8.8,6.2,5.8,2.5,1.4c-0.6,1.1-1,2.4-1,3.7c0,2.6,1.3,4.8,3.3,6.2
	c-1.2,0-2.3-0.4-3.3-0.9v0.1C1.4,14,4,17,7.4,17.6c-0.6,0.2-1.3,0.3-1.9,0.3c-0.5,0-0.9,0-1.4-0.1c0.9,2.9,3.7,5.1,6.9,5.1
	c-2.5,2-5.7,3.2-9.2,3.2c-0.6,0-1.2,0-1.8-0.1c3.3,2.1,7.2,3.3,11.3,3.3c13.6,0,21-11.3,21-21c0-0.3,0-0.6,0-1
	C33.8,6.3,35,4.9,36,3.5"/>
</svg>
