<?xml version="1.0" encoding="utf-8"?>
<!-- Generator: Adobe Illustrator 23.1.0, SVG Export Plug-In . SVG Version: 6.00 Build 0)  -->
<svg version="1.1" id="Icons" xmlns="http://www.w3.org/2000/svg" xmlns:xlink="http://www.w3.org/1999/xlink" x="0px" y="0px"
	 viewBox="0 0 36 29.26" style="enable-background:new 0 0 36 29.26;" xml:space="preserve">
<style type="text/css">
	.st0{fill:#191932;}
</style>
<path class="st0" d="M36,3.46c-1.33,0.59-2.75,0.98-4.24,1.16c1.53-0.91,2.7-2.36,3.25-4.08C33.58,1.39,32,2,30.31,2.33
	C28.97,0.9,27.05,0,24.92,0c-4.08,0-7.38,3.31-7.38,7.39c0,0.58,0.06,1.14,0.19,1.68C11.59,8.76,6.15,5.82,2.5,1.35
	c-0.64,1.09-1,2.36-1,3.72c0,2.56,1.3,4.82,3.28,6.15c-1.21-0.04-2.35-0.37-3.35-0.92v0.09c0,3.58,2.55,6.57,5.93,7.24
	c-0.62,0.17-1.27,0.26-1.95,0.26c-0.48,0-0.94-0.04-1.39-0.13c0.94,2.93,3.66,5.07,6.9,5.13c-2.53,1.98-5.71,3.16-9.17,3.16
	c-0.6,0-1.18-0.03-1.76-0.1c3.27,2.09,7.15,3.32,11.32,3.32c13.59,0,21.01-11.25,21.01-21.01c0-0.32-0.01-0.64-0.02-0.96
	C33.76,6.25,35.01,4.94,36,3.46"/>
</svg>
