<svg id="Layer_1" data-name="Layer 1" xmlns="http://www.w3.org/2000/svg" viewBox="0 0 24 24.02"><defs><style>.cls-1{fill:#fff;}</style></defs><title>Upload</title><path class="cls-1" d="M16.8,6.42c-.2,0-.5,0-.6-.2L12,1.92,7.8,6.12A.78.78,0,1,1,6.7,5L11.5.22a.8.8,0,0,1,1.1,0L17.4,5a.78.78,0,0,1,0,1.1C17.3,6.42,17,6.42,16.8,6.42Z"/><path class="cls-1" d="M12,15.22a.73.73,0,0,1-.8-.79V1.63a.74.74,0,0,1,.8-.8.74.74,0,0,1,.8.8v12.8A.73.73,0,0,1,12,15.22Z"/><path class="cls-1" d="M20,24H4a4,4,0,0,1-4-4v-3.2A.74.74,0,0,1,.8,16a.74.74,0,0,1,.8.8V20A2.43,2.43,0,0,0,4,22.42H20A2.43,2.43,0,0,0,22.4,20v-3.2a.8.8,0,0,1,1.6,0V20A3.89,3.89,0,0,1,20,24Z"/></svg>