<?xml version="1.0" standalone="no"?>
<!DOCTYPE svg PUBLIC "-//W3C//DTD SVG 20010904//EN"
 "http://www.w3.org/TR/2001/REC-SVG-20010904/DTD/svg10.dtd">
<svg version="1.0" xmlns="http://www.w3.org/2000/svg"
 width="714.000000pt" height="707.000000pt" viewBox="0 0 714.000000 707.000000"
 preserveAspectRatio="xMidYMid meet">

<g transform="translate(0.000000,707.000000) scale(0.100000,-0.100000)"
fill="#000000" stroke="none">
<path d="M3360 6924 c-1026 -88 -1896 -571 -2498 -1385 -292 -396 -509 -897
-596 -1379 -44 -245 -50 -321 -50 -620 0 -349 19 -519 94 -821 252 -1019 979
-1875 1945 -2291 300 -129 562 -201 930 -255 171 -25 659 -25 830 0 368 54
630 126 930 255 966 416 1693 1272 1945 2291 75 302 94 472 94 821 0 350 -19
518 -95 825 -298 1204 -1260 2165 -2468 2465 -273 68 -455 90 -761 94 -140 2
-275 2 -300 0z m40 -1799 l0 -1385 -695 0 -695 0 0 53 c0 149 49 559 91 767
79 390 183 706 335 1017 65 134 200 347 289 458 133 167 305 314 455 390 51
26 195 83 213 85 4 0 7 -623 7 -1385z m482 1359 c180 -65 328 -165 484 -326
388 -401 686 -1127 783 -1908 24 -191 41 -382 41 -457 l0 -53 -695 0 -695 0 0
1385 c0 762 2 1385 4 1385 3 0 38 -12 78 -26z m-1515 -261 c-415 -541 -690
-1382 -748 -2290 l-13 -193 -493 0 -493 0 0 50 c0 64 23 215 56 372 171 808
698 1533 1431 1964 80 47 289 154 300 154 2 0 -16 -26 -40 -57z m2546 1 c823
-413 1426 -1184 1611 -2062 33 -157 56 -308 56 -372 l0 -50 -493 0 -493 0 -12
183 c-59 894 -319 1715 -718 2259 -35 49 -59 88 -54 88 6 0 52 -21 103 -46z
m-3294 -3066 c58 -887 328 -1713 737 -2258 45 -60 79 -110 76 -110 -15 0 -234
111 -323 163 -735 432 -1262 1156 -1433 1965 -33 157 -56 308 -56 372 l0 50
493 0 494 0 12 -182z m1781 -1202 l0 -1385 -52 16 c-621 182 -1156 1108 -1297
2243 -24 191 -41 382 -41 458 l0 52 695 0 695 0 0 -1384z m1790 1332 c0 -150
-49 -560 -91 -768 -140 -693 -392 -1241 -734 -1599 -160 -167 -337 -283 -512
-334 l-53 -16 0 1385 0 1384 695 0 695 0 0 -52z m1390 2 c0 -112 -58 -417
-116 -610 -234 -773 -809 -1451 -1543 -1819 -138 -70 -139 -70 -88 -3 415 539
690 1382 748 2290 l13 192 493 0 493 0 0 -50z"/>
</g>
</svg>
